<?xml version="1.0" encoding="UTF-8" standalone="no"?>
<svg xmlns="http://www.w3.org/2000/svg" viewBox="0 0 16 16">
  <path fill-rule="evenodd" clip-rule="evenodd" d="M8 1.2c.4 0 .7.2.8.5.4 1 .9 1.8 1.6 2.4.8.7 1.6 1.2 2.3 1.8.8.7 1.4 1.6 1.7 2.7.4 1.5.2 3-.7 4.3-1 1.5-2.6 2.4-4.4 2.4h-2.5c-1.5 0-3-.7-4-1.9-1-1.2-1.5-2.7-1.3-4.3.2-1.4.8-2.5 1.7-3.3.5-.5 1-.8 1.5-1.1.4-.2.5-.2.6-.3l.2-.3c.2-.5.2-.9.2-1.2 0-.6.2-1 .5-1.3.3-.3.7-.4 1.1-.4Zm0 8.1c-.7 0-1.3.3-1.7.7-.5.5-.7 1.1-.6 1.8.1.7.5 1.2 1 1.6.4.3.9.4 1.3.4.6 0 1.1-.2 1.6-.6.5-.5.7-1 .7-1.7s-.3-1.3-.8-1.7c-.4-.4-.9-.5-1.5-.5Z"/>
</svg>
